<svg height="649pt" viewBox="-20 -29 649.34821 649" width="649pt" xmlns="http://www.w3.org/2000/svg"><path d="m451.492188 276.03125c-21.933594-.023438-43.617188 4.566406-63.65625 13.46875v-145.171875c0-6.203125-5.03125-11.226563-11.230469-11.226563h-14.28125v-34.269531c0-6.199219-5.027344-11.226562-11.226563-11.226562h-25.085937v-13.449219c0-6.203125-5.027344-11.226562-11.226563-11.226562-6.203125 0-11.226562 5.023437-11.226562 11.226562v13.449219h-25.769532c-6.195312 0-11.226562 5.027343-11.226562 11.226562v34.269531h-14.992188v-44.488281c0-6.203125-5.027343-11.226562-11.226562-11.226562h-28.859375v-34.890625c0-6.199219-5.027344-11.226563-11.226563-11.226563h-64.542968v-20.535156c0-6.203125-5.023438-11.226563-11.226563-11.226563-6.199219 0-11.230469 5.023438-11.230469 11.226563v20.535156h-61.867187c-6.203125 0-11.226563 5.027344-11.226563 11.226563v34.890625h-28.855468c-6.195313 0-11.2265628 5.023437-11.2265628 11.226562v412.125c0 6.199219 5.0312498 11.226563 11.2265628 11.226563h303.90625c38.152344 66.148437 118.292968 95.351562 190.058594 69.253906 71.761718-26.097656 114.425781-99.957031 101.171874-175.164062-13.25-75.203126-78.589843-130.027344-154.953124-130.023438zm-388.875-222.308594h126.414062v23.664063h-126.414062zm97.789062 435.789063h-24.691406v-68.746094h24.691406zm-47.148438 0h-22.011718v-68.746094h22.011718zm115.851563 0h-46.25v-79.972657c0-6.203124-5.03125-11.226562-11.226563-11.226562h-91.617187c-6.195313 0-11.226563 5.023438-11.226563 11.226562v79.972657h-46.25v-389.671875h206.578126zm59.910156-379.453125h50.851563v23.042968h-50.851563zm-37.449219 379.453125v-333.957031h113.816407v146.203124c-8.121094 5.324219-15.730469 11.390626-22.742188 18.109376-1.097656-.347657-2.246093-.53125-3.402343-.53125h-60.960938c-6.203125 0-11.226562 5.03125-11.226562 11.230468 0 6.203125 5.023437 11.226563 11.226562 11.226563h45.339844c-6.558594 9.136719-12.121094 18.945312-16.589844 29.265625h-28.75c-6.203125 0-11.226562 5.027344-11.226562 11.226562 0 6.199219 5.023437 11.226563 11.226562 11.226563h20.988281c-2.855469 10.90625-4.527343 22.082031-4.980469 33.351562h-16.007812c-6.203125 0-11.226562 5.023438-11.226562 11.226563 0 6.195312 5.023437 11.226562 11.226562 11.226562h16.667969c1.386719 13.761719 4.605469 27.277344 9.554687 40.195313zm199.925782 78.757812c-74.5.007813-134.898438-60.386719-134.898438-134.882812-.003906-74.5 60.390625-134.898438 134.890625-134.898438s134.894531 60.390625 134.894531 134.894531c-.082031 74.460938-60.429687 134.804688-134.890624 134.886719zm0 0"/><path d="m57.796875 217.945312h136.097656c6.199219 0 11.226563-5.027343 11.226563-11.230468 0-6.195313-5.027344-11.226563-11.226563-11.226563h-136.097656c-6.199219 0-11.226563 5.03125-11.226563 11.226563 0 6.203125 5.027344 11.230468 11.226563 11.230468zm0 0"/><path d="m57.796875 280.550781h136.097656c6.199219 0 11.226563-5.023437 11.226563-11.226562 0-6.199219-5.027344-11.230469-11.226563-11.230469h-136.097656c-6.199219 0-11.226563 5.03125-11.226563 11.230469 0 6.203125 5.027344 11.226562 11.226563 11.226562zm0 0"/><path d="m57.796875 343.15625h136.097656c6.199219 0 11.226563-5.023438 11.226563-11.226562 0-6.199219-5.027344-11.226563-11.226563-11.226563h-136.097656c-6.199219 0-11.226563 5.027344-11.226563 11.226563 0 6.203124 5.027344 11.226562 11.226563 11.226562zm0 0"/><path d="m57.796875 155.335938h136.097656c6.199219 0 11.226563-5.023438 11.226563-11.226563 0-6.199219-5.027344-11.226563-11.226563-11.226563h-136.097656c-6.199219 0-11.226563 5.027344-11.226563 11.226563 0 6.203125 5.027344 11.226563 11.226563 11.226563zm0 0"/><path d="m278.28125 285.996094h58.523438c6.199218 0 11.226562-5.027344 11.226562-11.226563 0-6.203125-5.027344-11.226562-11.226562-11.226562h-58.523438c-6.203125 0-11.226562 5.023437-11.226562 11.226562 0 6.199219 5.023437 11.226563 11.226562 11.226563zm0 0"/><path d="m278.28125 231.554688h58.523438c6.199218 0 11.226562-5.023438 11.226562-11.226563 0-6.199219-5.027344-11.230469-11.226562-11.230469h-58.523438c-6.203125 0-11.226562 5.03125-11.226562 11.230469 0 6.203125 5.023437 11.226563 11.226562 11.226563zm0 0"/><path d="m501.730469 427.34375c-4.691407-5.042969-12.585938-5.324219-17.628907-.628906-5.042968 4.691406-5.324218 12.585937-.632812 17.628906l16.148438 17.355469h-124.90625c-6.890626 0-12.472657 5.582031-12.472657 12.472656s5.582031 12.472656 12.472657 12.472656h124.90625l-16.148438 17.355469c-4.691406 5.042969-4.410156 12.9375.632812 17.628906 5.042969 4.695313 12.9375 4.410156 17.628907-.632812l35.671875-38.324219c4.457031-4.792969 4.457031-12.207031 0-17zm0 0"/><path d="m401.25 439.414062c4.695312 5.023438 12.574219 5.296876 17.609375.609376 5.035156-4.683594 5.324219-12.5625.652344-17.605469l-16.148438-17.351563h124.90625c6.890625 0 12.472657-5.585937 12.472657-12.476562s-5.582032-12.472656-12.472657-12.472656h-124.90625l16.148438-17.351563c3.050781-3.261719 4.128906-7.90625 2.820312-12.171875-1.304687-4.269531-4.792969-7.515625-9.144531-8.511719-4.351562-.996093-8.902344.40625-11.9375 3.6875l-35.664062 38.324219c-4.460938 4.789062-4.460938 12.207031 0 16.996094zm0 0"/></svg>